<mxfile host="app.diagrams.net" modified="2022-08-29T09:26:46.262Z" agent="5.0 (Macintosh; Intel Mac OS X 10_15_7) AppleWebKit/537.36 (KHTML, like Gecko) Chrome/104.0.0.0 Safari/537.36" etag="X_80UfRpGaBVqkDTmyvm" version="20.2.7" type="github">
  <diagram name="Page-1" id="e7e014a7-5840-1c2e-5031-d8a46d1fe8dd">
    <mxGraphModel dx="1227" dy="672" grid="1" gridSize="10" guides="1" tooltips="1" connect="1" arrows="1" fold="1" page="1" pageScale="1" pageWidth="1169" pageHeight="826" background="none" math="0" shadow="0">
      <root>
        <mxCell id="0" />
        <mxCell id="1" parent="0" />
        <mxCell id="2" value="Hardware simulation" style="swimlane;whiteSpace=wrap;startSize=32;fontSize=14;" parent="1" vertex="1">
          <mxGeometry x="164.5" y="128" width="280" height="570" as="geometry" />
        </mxCell>
        <mxCell id="7" value="Photon emitter" style="fillColor=#dae8fc;strokeColor=#6c8ebf;" parent="2" vertex="1">
          <mxGeometry x="60" y="42" width="110" height="50" as="geometry" />
        </mxCell>
        <mxCell id="8" value="Symphony&#xa;Qutip" style="fillColor=#60a917;fontColor=#ffffff;strokeColor=#2D7600;" parent="2" vertex="1">
          <mxGeometry x="115.5" y="122" width="110" height="50" as="geometry" />
        </mxCell>
        <mxCell id="9" value="" style="endArrow=open;strokeColor=#C73500;endFill=1;rounded=0;entryX=0.727;entryY=-0.08;entryDx=0;entryDy=0;entryPerimeter=0;fillColor=#fa6800;" parent="2" target="8" edge="1">
          <mxGeometry relative="1" as="geometry">
            <mxPoint x="195.5" y="72" as="sourcePoint" />
            <mxPoint x="195.5" y="112" as="targetPoint" />
          </mxGeometry>
        </mxCell>
        <mxCell id="10" value="Initial state =&gt; &#xa;Parameter ± uncertainties  &#xa;(Fock state?)" style="" parent="2" vertex="1">
          <mxGeometry x="29" y="235" width="195.5" height="65" as="geometry" />
        </mxCell>
        <mxCell id="11" value="" style="endArrow=open;strokeColor=#FF0000;endFill=1;rounded=0;exitX=0.5;exitY=0.98;exitDx=0;exitDy=0;exitPerimeter=0;" parent="2" source="8" edge="1">
          <mxGeometry relative="1" as="geometry">
            <mxPoint x="170.5" y="232" as="targetPoint" />
          </mxGeometry>
        </mxCell>
        <mxCell id="yrNayHVButm88U-MHqYs-51" value="" style="shape=flexArrow;endArrow=classic;html=1;rounded=0;fontSize=15;fontColor=#330066;fillColor=#e51400;strokeColor=#FF3333;" edge="1" parent="2">
          <mxGeometry width="50" height="50" relative="1" as="geometry">
            <mxPoint x="225.5" y="262" as="sourcePoint" />
            <mxPoint x="315.5" y="86" as="targetPoint" />
            <Array as="points">
              <mxPoint x="255.5" y="262" />
              <mxPoint x="255.5" y="86" />
            </Array>
          </mxGeometry>
        </mxCell>
        <mxCell id="3" value="Program simulation" style="swimlane;whiteSpace=wrap;startSize=32;fontSize=14;" parent="1" vertex="1">
          <mxGeometry x="444.5" y="128" width="280" height="570" as="geometry" />
        </mxCell>
        <mxCell id="yrNayHVButm88U-MHqYs-52" value="Circuit Simulation + &#xa;classical optimising algorithm" style="fillColor=#dae8fc;strokeColor=#6c8ebf;" vertex="1" parent="3">
          <mxGeometry x="35.5" y="52" width="204.5" height="68" as="geometry" />
        </mxCell>
        <mxCell id="yrNayHVButm88U-MHqYs-53" value="" style="endArrow=open;strokeColor=#FF0000;endFill=1;rounded=0;exitX=0.5;exitY=0.98;exitDx=0;exitDy=0;exitPerimeter=0;" edge="1" parent="3">
          <mxGeometry relative="1" as="geometry">
            <mxPoint x="107.26999999999998" y="122" as="sourcePoint" />
            <mxPoint x="107.5" y="162" as="targetPoint" />
          </mxGeometry>
        </mxCell>
        <mxCell id="yrNayHVButm88U-MHqYs-54" value="Strawberry Fields&#xa;Penny Lane" style="fillColor=#60a917;fontColor=#ffffff;strokeColor=#2D7600;" vertex="1" parent="3">
          <mxGeometry x="52.75" y="162" width="110" height="50" as="geometry" />
        </mxCell>
        <mxCell id="yrNayHVButm88U-MHqYs-55" value="Resulting state ± uncertainties" style="" vertex="1" parent="3">
          <mxGeometry x="15.5" y="272" width="204.5" height="50" as="geometry" />
        </mxCell>
        <mxCell id="yrNayHVButm88U-MHqYs-56" value="" style="endArrow=open;strokeColor=#FF0000;endFill=1;rounded=0;exitX=0.5;exitY=0.98;exitDx=0;exitDy=0;exitPerimeter=0;" edge="1" parent="3">
          <mxGeometry relative="1" as="geometry">
            <mxPoint x="115.5" y="212" as="sourcePoint" />
            <mxPoint x="115.5" y="273" as="targetPoint" />
          </mxGeometry>
        </mxCell>
        <mxCell id="4" value="Use-Case" style="swimlane;whiteSpace=wrap;startSize=32;fontSize=14;" parent="1" vertex="1">
          <mxGeometry x="724.5" y="128" width="280" height="570" as="geometry" />
        </mxCell>
        <mxCell id="yrNayHVButm88U-MHqYs-57" value="" style="shape=flexArrow;endArrow=classic;html=1;rounded=0;fontSize=15;fontColor=#330066;fillColor=#e51400;strokeColor=#FF3333;exitX=0.994;exitY=0.558;exitDx=0;exitDy=0;exitPerimeter=0;" edge="1" parent="4" source="yrNayHVButm88U-MHqYs-55">
          <mxGeometry width="50" height="50" relative="1" as="geometry">
            <mxPoint x="-64.5" y="302" as="sourcePoint" />
            <mxPoint x="45.5" y="72" as="targetPoint" />
            <Array as="points">
              <mxPoint x="-14.5" y="300" />
              <mxPoint x="-14.5" y="72" />
            </Array>
          </mxGeometry>
        </mxCell>
        <mxCell id="yrNayHVButm88U-MHqYs-58" value="VQE, QML &#xa;Ground state " style="fillColor=#dae8fc;strokeColor=#6c8ebf;" vertex="1" parent="4">
          <mxGeometry x="45.5" y="52" width="204.5" height="68" as="geometry" />
        </mxCell>
        <mxCell id="yrNayHVButm88U-MHqYs-59" value="Penny Lane" style="fillColor=#60a917;fontColor=#ffffff;strokeColor=#2D7600;" vertex="1" parent="4">
          <mxGeometry x="55.5" y="152" width="110" height="50" as="geometry" />
        </mxCell>
        <mxCell id="yrNayHVButm88U-MHqYs-60" value="" style="endArrow=open;strokeColor=#FF0000;endFill=1;rounded=0;exitX=0.5;exitY=0.98;exitDx=0;exitDy=0;exitPerimeter=0;" edge="1" parent="4">
          <mxGeometry relative="1" as="geometry">
            <mxPoint x="95.5" y="120" as="sourcePoint" />
            <mxPoint x="95.5" y="152" as="targetPoint" />
          </mxGeometry>
        </mxCell>
        <mxCell id="yrNayHVButm88U-MHqYs-61" value="Optimised state ± uncertainties" style="" vertex="1" parent="4">
          <mxGeometry x="37.75" y="272" width="204.5" height="50" as="geometry" />
        </mxCell>
        <mxCell id="yrNayHVButm88U-MHqYs-68" value="" style="endArrow=open;strokeColor=#FF0000;endFill=1;rounded=0;exitX=0.5;exitY=0.98;exitDx=0;exitDy=0;exitPerimeter=0;entryX=0.354;entryY=-0.067;entryDx=0;entryDy=0;entryPerimeter=0;" edge="1" parent="4" target="yrNayHVButm88U-MHqYs-61">
          <mxGeometry relative="1" as="geometry">
            <mxPoint x="110.07999999999993" y="202" as="sourcePoint" />
            <mxPoint x="110.07999999999993" y="262.9999999999999" as="targetPoint" />
          </mxGeometry>
        </mxCell>
        <mxCell id="yrNayHVButm88U-MHqYs-42" value="" style="endArrow=none;html=1;rounded=0;fillColor=#fa6800;strokeColor=#C73500;" edge="1" parent="1">
          <mxGeometry width="50" height="50" relative="1" as="geometry">
            <mxPoint x="360" y="200" as="sourcePoint" />
            <mxPoint x="340" y="200" as="targetPoint" />
          </mxGeometry>
        </mxCell>
        <mxCell id="yrNayHVButm88U-MHqYs-44" value="&lt;font color=&quot;#330066&quot; style=&quot;font-size: 25px;&quot;&gt;Co-design&lt;/font&gt;" style="rounded=1;whiteSpace=wrap;html=1;fontSize=14;fillColor=#e1d5e7;strokeColor=#9673a6;" vertex="1" parent="1">
          <mxGeometry x="330" y="50" width="235.5" height="60" as="geometry" />
        </mxCell>
        <mxCell id="yrNayHVButm88U-MHqYs-45" value="" style="shape=flexArrow;endArrow=classic;html=1;rounded=0;fontSize=25;fontColor=#330066;entryX=0.557;entryY=-0.002;entryDx=0;entryDy=0;entryPerimeter=0;fillColor=#76608a;strokeColor=#432D57;exitX=0.995;exitY=0.592;exitDx=0;exitDy=0;exitPerimeter=0;" edge="1" parent="1" source="yrNayHVButm88U-MHqYs-44" target="3">
          <mxGeometry width="50" height="50" relative="1" as="geometry">
            <mxPoint x="565.5" y="60" as="sourcePoint" />
            <mxPoint x="615.5" y="10" as="targetPoint" />
            <Array as="points">
              <mxPoint x="600" y="86" />
            </Array>
          </mxGeometry>
        </mxCell>
        <mxCell id="yrNayHVButm88U-MHqYs-46" value="" style="shape=flexArrow;endArrow=classic;html=1;rounded=0;fontSize=25;fontColor=#330066;entryX=0.411;entryY=-0.004;entryDx=0;entryDy=0;entryPerimeter=0;fillColor=#76608a;strokeColor=#432D57;exitX=-0.004;exitY=0.601;exitDx=0;exitDy=0;exitPerimeter=0;" edge="1" parent="1" source="yrNayHVButm88U-MHqYs-44" target="2">
          <mxGeometry width="50" height="50" relative="1" as="geometry">
            <mxPoint x="330" y="90" as="sourcePoint" />
            <mxPoint x="380" y="20" as="targetPoint" />
            <Array as="points">
              <mxPoint x="280" y="86" />
            </Array>
          </mxGeometry>
        </mxCell>
        <mxCell id="yrNayHVButm88U-MHqYs-48" value="" style="ellipse;whiteSpace=wrap;html=1;aspect=fixed;fontSize=25;fontColor=#ffffff;fillColor=#60a917;strokeColor=#2D7600;" vertex="1" parent="1">
          <mxGeometry x="800" y="30" width="20" height="20" as="geometry" />
        </mxCell>
        <mxCell id="yrNayHVButm88U-MHqYs-50" value="&lt;font style=&quot;font-size: 15px;&quot;&gt;Tools&lt;/font&gt;" style="text;html=1;align=center;verticalAlign=middle;resizable=0;points=[];autosize=1;strokeColor=none;fillColor=none;fontSize=14;fontColor=#330066;" vertex="1" parent="1">
          <mxGeometry x="830" y="25" width="60" height="30" as="geometry" />
        </mxCell>
      </root>
    </mxGraphModel>
  </diagram>
</mxfile>
